<svg xmlns="http://www.w3.org/2000/svg" viewBox="0 0 1080 1080"><defs><style>.cls-1{fill:#fff;}.cls-2{fill:#1c3879;}.cls-3{fill:#d7e4f4;}</style></defs><g id="Layer_2" data-name="Layer 2"><g id="Layer_1-2" data-name="Layer 1"><rect class="cls-1" width="1080" height="1080"/><path class="cls-2" d="M377.5,701.77l-32.08,20.37,17.9-33.52A465,465,0,0,1,505.24,528.17c1.91-1.34,3.84-2.66,5.76-4v-168c-.93-.33-1.85-.66-2.76-1a164,164,0,0,1-102.88-121.4H310.45l-126.73,46.9L247.06,451.8l81.44-30.14V846.25H511V641.18A526.2,526.2,0,0,0,377.5,701.77Z"/><path class="cls-3" d="M826,233.75v612.5H643.5V610a536.16,536.16,0,0,0-271.36,83.35A453.15,453.15,0,0,1,511,536.35a448.59,448.59,0,0,1,132.5-63.89V233.75Z"/></g></g></svg>