<svg xmlns="http://www.w3.org/2000/svg" viewBox="0 0 133.79 127.59"><defs><style>.cls-1{fill:#1c3879;}.cls-2{fill:#d7e4f4;}</style></defs><g id="Layer_2" data-name="Layer 2"><g id="Layer_1-2" data-name="Layer 1"><path class="cls-1" d="M40.37,97.49l-6.69,4.24,3.73-7A96.86,96.86,0,0,1,67,61.33l1.2-.83v-35l-.57-.21A34.16,34.16,0,0,1,46.17,0H26.4L0,9.77,13.19,45.42l17-6.28v88.45h38V84.87A109.48,109.48,0,0,0,40.37,97.49Z"/><path class="cls-2" d="M133.79,0V127.59h-38V78.37A111.76,111.76,0,0,0,39.25,95.73a94.17,94.17,0,0,1,56.52-46V0Z"/></g></g></svg>