<svg xmlns="http://www.w3.org/2000/svg" viewBox="0 0 523.75 94.28"><defs><style>.cls-1{fill:#1c3879;}.cls-2{fill:#d7e4f4;}</style></defs><g id="Layer_2" data-name="Layer 2"><g id="Layer_1-2" data-name="Layer 1"><path class="cls-1" d="M29.83,72l-4.94,3.14L27.65,70a71.59,71.59,0,0,1,21.84-24.7l.89-.61V18.84L50,18.69A25.26,25.26,0,0,1,34.12,0H19.51L0,7.22,9.75,33.56l12.54-4.63V94.28H50.38V62.72A80.72,80.72,0,0,0,29.83,72Z"/><path class="cls-2" d="M98.87,0V94.28H70.78V57.91A82.64,82.64,0,0,0,29,70.74,69.87,69.87,0,0,1,50.38,46.58a68.66,68.66,0,0,1,20.4-9.83V0Z"/><path class="cls-1" d="M123.32,65.5a1.34,1.34,0,0,1-1-.37,1.3,1.3,0,0,1-.37-1V29.58a1.26,1.26,0,0,1,.37-.95,1.3,1.3,0,0,1,1-.38h6.86a1.3,1.3,0,0,1,1,.38,1.26,1.26,0,0,1,.37.95V42.41h13.15V29.58a1.26,1.26,0,0,1,.37-.95,1.3,1.3,0,0,1,1-.38h6.86a1.3,1.3,0,0,1,1,.38,1.26,1.26,0,0,1,.37.95V64.17a1.3,1.3,0,0,1-.37,1,1.34,1.34,0,0,1-1,.37H146a1.34,1.34,0,0,1-1-.37,1.3,1.3,0,0,1-.37-1V50.92H131.51V64.17a1.3,1.3,0,0,1-.37,1,1.34,1.34,0,0,1-1,.37Z"/><path class="cls-1" d="M177.22,66a20.71,20.71,0,0,1-8.38-1.57,11.85,11.85,0,0,1-5.56-4.84,16,16,0,0,1-2-8.33V29.58a1.26,1.26,0,0,1,.37-.95,1.3,1.3,0,0,1,1-.38h6.86a1.3,1.3,0,0,1,1,.38,1.26,1.26,0,0,1,.37.95V51.24a7.2,7.2,0,0,0,1.68,5.19,6.27,6.27,0,0,0,4.71,1.73,6.18,6.18,0,0,0,4.65-1.73,7.2,7.2,0,0,0,1.68-5.19V29.58a1.21,1.21,0,0,1,.4-.95,1.32,1.32,0,0,1,.93-.38h6.92a1.33,1.33,0,0,1,.93.38,1.24,1.24,0,0,1,.4.95V51.29a16,16,0,0,1-2,8.33,11.92,11.92,0,0,1-5.53,4.84A20.69,20.69,0,0,1,177.22,66Z"/><path class="cls-1" d="M201.53,65.5a1.37,1.37,0,0,1-.93-.37,1.28,1.28,0,0,1-.4-1V29.58a1.24,1.24,0,0,1,.4-.95,1.33,1.33,0,0,1,.93-.38h5.75a1.72,1.72,0,0,1,1.3.46,2.63,2.63,0,0,1,.56.71l9.37,16.82,9.36-16.82a5.88,5.88,0,0,1,.56-.71,1.63,1.63,0,0,1,1.3-.46h5.7a1.38,1.38,0,0,1,1,.38,1.21,1.21,0,0,1,.4.95V64.17a1.25,1.25,0,0,1-.4,1,1.42,1.42,0,0,1-1,.37h-6.34a1.42,1.42,0,0,1-1-.37,1.25,1.25,0,0,1-.4-1v-20l-6,11.12a2.58,2.58,0,0,1-.64.85,1.69,1.69,0,0,1-1.17.37h-2.77a1.73,1.73,0,0,1-1.17-.37,3.48,3.48,0,0,1-.69-.85l-6-11.12v20a1.27,1.27,0,0,1-1.33,1.33Z"/><path class="cls-1" d="M245.54,65.5a1.38,1.38,0,0,1-.94-.37,1.27,1.27,0,0,1-.39-1V29.58a1.24,1.24,0,0,1,.39-.95,1.34,1.34,0,0,1,.94-.38h5.74a1.76,1.76,0,0,1,1.31.46,2.54,2.54,0,0,1,.55.71l9.37,16.82,9.36-16.82a7.13,7.13,0,0,1,.56-.71,1.63,1.63,0,0,1,1.3-.46h5.7a1.37,1.37,0,0,1,1,.38,1.21,1.21,0,0,1,.4.95V64.17a1.25,1.25,0,0,1-.4,1,1.4,1.4,0,0,1-1,.37H273.1a1.44,1.44,0,0,1-1-.37,1.28,1.28,0,0,1-.4-1v-20l-6,11.12a2.45,2.45,0,0,1-.64.85,1.69,1.69,0,0,1-1.17.37h-2.77a1.73,1.73,0,0,1-1.17-.37,3.48,3.48,0,0,1-.69-.85l-6-11.12v20a1.3,1.3,0,0,1-.37,1,1.34,1.34,0,0,1-1,.37Z"/><path class="cls-1" d="M286.08,65.5a1.06,1.06,0,0,1-.77-.35,1.08,1.08,0,0,1-.35-.77,2.28,2.28,0,0,1,.05-.48l12.51-34.16a2.1,2.1,0,0,1,.66-1,2,2,0,0,1,1.41-.46h7.88a2,2,0,0,1,1.41.46,2.1,2.1,0,0,1,.66,1L322,63.9a1.06,1.06,0,0,1,.11.48,1.08,1.08,0,0,1-.35.77,1.12,1.12,0,0,1-.82.35h-6.55a1.63,1.63,0,0,1-1.19-.4,2,2,0,0,1-.51-.72L310.61,59H296.4l-2,5.43a2.13,2.13,0,0,1-.48.72,1.72,1.72,0,0,1-1.28.4Zm12.5-14.21h9.9l-5-14Z"/><path class="cls-1" d="M344.61,65.5a1.34,1.34,0,0,1-1-.37,1.3,1.3,0,0,1-.37-1V36.61H333.8a1.26,1.26,0,0,1-.95-.4,1.33,1.33,0,0,1-.38-.93v-5.7a1.27,1.27,0,0,1,.38-.95,1.28,1.28,0,0,1,.95-.38h28.63a1.3,1.3,0,0,1,1,.38,1.26,1.26,0,0,1,.37.95v5.7a1.32,1.32,0,0,1-.37.93,1.28,1.28,0,0,1-1,.4H353V64.17a1.27,1.27,0,0,1-1.33,1.33Z"/><path class="cls-1" d="M369.93,65.5a1.27,1.27,0,0,1-1.33-1.33V29.58a1.28,1.28,0,0,1,1.33-1.33h6.87a1.3,1.3,0,0,1,.95.38,1.27,1.27,0,0,1,.38.95V42.41h13.14V29.58a1.26,1.26,0,0,1,.37-.95,1.3,1.3,0,0,1,1-.38h6.86a1.3,1.3,0,0,1,1,.38,1.26,1.26,0,0,1,.37.95V64.17a1.3,1.3,0,0,1-.37,1,1.34,1.34,0,0,1-1,.37H392.6a1.34,1.34,0,0,1-1-.37,1.3,1.3,0,0,1-.37-1V50.92H378.13V64.17a1.3,1.3,0,0,1-.38,1,1.33,1.33,0,0,1-.95.37Z"/><path class="cls-1" d="M409.57,65.5a1.34,1.34,0,0,1-1-.37,1.3,1.3,0,0,1-.37-1V29.58a1.26,1.26,0,0,1,.37-.95,1.3,1.3,0,0,1,1-.38H424q6.87,0,10.83,3.17t4,9A10.85,10.85,0,0,1,437,46.77a11.55,11.55,0,0,1-4.82,3.94l7.35,13.09a1.37,1.37,0,0,1,.16.58,1.08,1.08,0,0,1-.35.77,1.14,1.14,0,0,1-.83.35h-7A2,2,0,0,1,430,65a3.7,3.7,0,0,1-.69-.93l-6.07-11.7h-5.48V64.17a1.3,1.3,0,0,1-.37,1,1.34,1.34,0,0,1-1,.37Zm8.19-20.65h6.18a5.16,5.16,0,0,0,3.75-1.22,4.49,4.49,0,0,0,1.25-3.35,4.68,4.68,0,0,0-1.2-3.35,5,5,0,0,0-3.8-1.28h-6.18Z"/><path class="cls-1" d="M446.34,65.5a1.32,1.32,0,0,1-1-.37,1.3,1.3,0,0,1-.37-1V29.58a1.26,1.26,0,0,1,.37-.95,1.29,1.29,0,0,1,1-.38h7.13a1.3,1.3,0,0,1,.95.38,1.27,1.27,0,0,1,.38.95V64.17a1.3,1.3,0,0,1-.38,1,1.33,1.33,0,0,1-.95.37Z"/><path class="cls-1" d="M463.57,65.5a1.28,1.28,0,0,1-1.33-1.33V29.58a1.3,1.3,0,0,1,1.33-1.33H488a1.38,1.38,0,0,1,1,.38,1.21,1.21,0,0,1,.4.95V35a1.21,1.21,0,0,1-.4.95,1.38,1.38,0,0,1-1,.38H471.61v7.82h15.32a1.35,1.35,0,0,1,1.38,1.38v5.32a1.27,1.27,0,0,1-.39.93,1.34,1.34,0,0,1-1,.4H471.61v12a1.27,1.27,0,0,1-1.33,1.33Z"/><path class="cls-1" d="M504.6,65.5a1.34,1.34,0,0,1-1-.37,1.3,1.3,0,0,1-.37-1V36.61h-9.48a1.26,1.26,0,0,1-1-.4,1.33,1.33,0,0,1-.38-.93v-5.7a1.27,1.27,0,0,1,.38-.95,1.28,1.28,0,0,1,1-.38h28.63a1.3,1.3,0,0,1,1,.38,1.26,1.26,0,0,1,.37.95v5.7a1.32,1.32,0,0,1-.37.93,1.28,1.28,0,0,1-1,.4H513V64.17a1.27,1.27,0,0,1-1.33,1.33Z"/></g></g></svg>