<svg xmlns="http://www.w3.org/2000/svg" viewBox="0 0 708.75 127.59"><defs><style>.cls-1{fill:#231f20;}</style></defs><g id="Layer_2" data-name="Layer 2"><g id="Layer_1-2" data-name="Layer 1"><path class="cls-1" d="M40.37,97.49l-6.69,4.24,3.73-7A96.86,96.86,0,0,1,67,61.33l1.2-.83v-35l-.57-.21A34.16,34.16,0,0,1,46.17,0H26.4L0,9.77,13.19,45.42l17-6.28v88.45h38V84.87A109.48,109.48,0,0,0,40.37,97.49Z"/><path class="cls-1" d="M133.79,0V127.59h-38V78.37A111.76,111.76,0,0,0,39.25,95.73a94.17,94.17,0,0,1,56.52-46V0Z"/><path class="cls-1" d="M166.88,88.63a1.75,1.75,0,0,1-1.3-.5,1.79,1.79,0,0,1-.5-1.3V40a1.73,1.73,0,0,1,1.8-1.8h9.29A1.74,1.74,0,0,1,178,40V57.38h17.78V40a1.74,1.74,0,0,1,1.8-1.8h9.29a1.73,1.73,0,0,1,1.8,1.8v46.8a1.79,1.79,0,0,1-.5,1.3,1.75,1.75,0,0,1-1.3.5h-9.29a1.71,1.71,0,0,1-1.29-.5,1.76,1.76,0,0,1-.51-1.3V68.9H178V86.83a1.76,1.76,0,0,1-.51,1.3,1.73,1.73,0,0,1-1.29.5Z"/><path class="cls-1" d="M239.81,89.35a28.29,28.29,0,0,1-11.34-2.12A16.09,16.09,0,0,1,221,80.68a21.66,21.66,0,0,1-2.66-11.27V40a1.73,1.73,0,0,1,.5-1.29,1.76,1.76,0,0,1,1.3-.51h9.29a1.74,1.74,0,0,1,1.8,1.8V69.34q0,4.68,2.26,7a8.48,8.48,0,0,0,6.37,2.34,8.36,8.36,0,0,0,6.3-2.34c1.52-1.56,2.27-3.9,2.27-7V40a1.68,1.68,0,0,1,.54-1.29,1.78,1.78,0,0,1,1.26-.51h9.36a1.78,1.78,0,0,1,1.26.51,1.68,1.68,0,0,1,.54,1.29V69.41a21.66,21.66,0,0,1-2.66,11.27,16.11,16.11,0,0,1-7.49,6.55A28.18,28.18,0,0,1,239.81,89.35Z"/><path class="cls-1" d="M272.72,88.63a1.77,1.77,0,0,1-1.26-.5,1.7,1.7,0,0,1-.54-1.3V40a1.68,1.68,0,0,1,.54-1.29,1.78,1.78,0,0,1,1.26-.51h7.77a2.44,2.44,0,0,1,1.77.61,3.26,3.26,0,0,1,.75,1l12.68,22.75,12.67-22.75a6.94,6.94,0,0,1,.75-1,2.28,2.28,0,0,1,1.77-.61h7.7a1.86,1.86,0,0,1,1.33.51,1.68,1.68,0,0,1,.54,1.29v46.8a1.7,1.7,0,0,1-.54,1.3,1.85,1.85,0,0,1-1.33.5H310a1.87,1.87,0,0,1-1.33-.5,1.7,1.7,0,0,1-.54-1.3v-27l-8.13,15a3.31,3.31,0,0,1-.87,1.15,2.29,2.29,0,0,1-1.58.51h-3.75a2.29,2.29,0,0,1-1.58-.51,4.13,4.13,0,0,1-.94-1.15l-8.13-15v27a1.76,1.76,0,0,1-.51,1.3,1.71,1.71,0,0,1-1.29.5Z"/><path class="cls-1" d="M332.26,88.63a1.77,1.77,0,0,1-1.26-.5,1.7,1.7,0,0,1-.54-1.3V40a1.68,1.68,0,0,1,.54-1.29,1.78,1.78,0,0,1,1.26-.51H340a2.43,2.43,0,0,1,1.76.61,3.53,3.53,0,0,1,.76,1l12.67,22.75L367.9,39.82a8.1,8.1,0,0,1,.76-1,2.27,2.27,0,0,1,1.76-.61h7.71a1.87,1.87,0,0,1,1.33.51A1.68,1.68,0,0,1,380,40v46.8a1.7,1.7,0,0,1-.54,1.3,1.87,1.87,0,0,1-1.33.5h-8.57a1.85,1.85,0,0,1-1.33-.5,1.7,1.7,0,0,1-.54-1.3v-27l-8.14,15a3.28,3.28,0,0,1-.86,1.15,2.34,2.34,0,0,1-1.59.51h-3.74a2.34,2.34,0,0,1-1.59-.51,4.28,4.28,0,0,1-.93-1.15l-8.14-15v27a1.79,1.79,0,0,1-.5,1.3,1.75,1.75,0,0,1-1.3.5Z"/><path class="cls-1" d="M387.13,88.63a1.44,1.44,0,0,1-1.05-.46,1.47,1.47,0,0,1-.47-1,2.63,2.63,0,0,1,.08-.65l16.92-46.22a2.85,2.85,0,0,1,.9-1.41,2.78,2.78,0,0,1,1.9-.61h10.66a2.81,2.81,0,0,1,1.91.61,3,3,0,0,1,.9,1.41l16.85,46.22a1.55,1.55,0,0,1,.14.65,1.47,1.47,0,0,1-.47,1,1.51,1.51,0,0,1-1.11.46h-8.86a2.2,2.2,0,0,1-1.62-.54,2.57,2.57,0,0,1-.68-1l-2.81-7.34H401.09l-2.73,7.34a2.82,2.82,0,0,1-.65,1,2.3,2.3,0,0,1-1.73.54Zm16.92-19.22h13.39l-6.77-19Z"/><path class="cls-1" d="M466.33,88.63a1.71,1.71,0,0,1-1.8-1.8V49.54H451.71a1.7,1.7,0,0,1-1.3-.54,1.81,1.81,0,0,1-.5-1.26V40a1.73,1.73,0,0,1,1.8-1.8h38.74a1.74,1.74,0,0,1,1.8,1.8v7.71a1.78,1.78,0,0,1-.51,1.26,1.68,1.68,0,0,1-1.29.54H477.63V86.83a1.79,1.79,0,0,1-.5,1.3,1.75,1.75,0,0,1-1.3.5Z"/><path class="cls-1" d="M500.6,88.63a1.75,1.75,0,0,1-1.3-.5,1.79,1.79,0,0,1-.5-1.3V40a1.73,1.73,0,0,1,1.8-1.8h9.29a1.75,1.75,0,0,1,1.29.51,1.73,1.73,0,0,1,.5,1.29V57.38h17.79V40a1.73,1.73,0,0,1,1.8-1.8h9.29a1.74,1.74,0,0,1,1.8,1.8v46.8a1.76,1.76,0,0,1-.51,1.3,1.73,1.73,0,0,1-1.29.5h-9.29a1.75,1.75,0,0,1-1.3-.5,1.79,1.79,0,0,1-.5-1.3V68.9H511.68V86.83a1.71,1.71,0,0,1-1.79,1.8Z"/><path class="cls-1" d="M554.24,88.63a1.71,1.71,0,0,1-1.8-1.8V40a1.73,1.73,0,0,1,.5-1.29,1.76,1.76,0,0,1,1.3-.51h19.58q9.28,0,14.65,4.29t5.37,12.13a14.59,14.59,0,0,1-2.49,8.64,15.59,15.59,0,0,1-6.51,5.33l9.93,17.71a1.72,1.72,0,0,1,.22.79,1.47,1.47,0,0,1-.47,1,1.52,1.52,0,0,1-1.12.46h-9.5a2.63,2.63,0,0,1-2-.68,5.37,5.37,0,0,1-.94-1.26l-8.21-15.84h-7.42v16a1.71,1.71,0,0,1-1.8,1.8ZM565.32,60.7h8.36A7,7,0,0,0,578.75,59a6,6,0,0,0,1.69-4.54A6.35,6.35,0,0,0,578.82,50q-1.62-1.72-5.14-1.73h-8.36Z"/><path class="cls-1" d="M604,88.63a1.75,1.75,0,0,1-1.3-.5,1.79,1.79,0,0,1-.5-1.3V40a1.73,1.73,0,0,1,1.8-1.8h9.65a1.74,1.74,0,0,1,1.8,1.8v46.8a1.73,1.73,0,0,1-1.8,1.8Z"/><path class="cls-1" d="M627.31,88.63a1.73,1.73,0,0,1-1.29-.5,1.76,1.76,0,0,1-.51-1.3V40a1.74,1.74,0,0,1,1.8-1.8h33.05a1.84,1.84,0,0,1,1.33.51,1.68,1.68,0,0,1,.54,1.29V47.3a1.69,1.69,0,0,1-.54,1.3,1.84,1.84,0,0,1-1.33.51H638.19V59.69h20.73a1.84,1.84,0,0,1,1.88,1.87v7.2a1.77,1.77,0,0,1-.54,1.26,1.84,1.84,0,0,1-1.34.54H638.19V86.83a1.76,1.76,0,0,1-.51,1.3,1.73,1.73,0,0,1-1.29.5Z"/><path class="cls-1" d="M682.83,88.63a1.71,1.71,0,0,1-1.8-1.8V49.54H668.21a1.7,1.7,0,0,1-1.3-.54,1.81,1.81,0,0,1-.5-1.26V40a1.73,1.73,0,0,1,1.8-1.8H707a1.74,1.74,0,0,1,1.8,1.8v7.71a1.78,1.78,0,0,1-.51,1.26,1.68,1.68,0,0,1-1.29.54H694.13V86.83a1.79,1.79,0,0,1-.5,1.3,1.75,1.75,0,0,1-1.3.5Z"/></g></g></svg>