
<svg xmlns="http://www.w3.org/2000/svg" xmlns:xlink="http://www.w3.org/1999/xlink">
    <defs>
    <symbol viewBox="0 0 640 512" id="fa6-solid-boxes-packing"><path fill="currentColor" d="M256 48c0-26.5 21.5-48 48-48h288c26.5 0 48 21.5 48 48v416c0 26.5-21.5 48-48 48H381.3c1.8-5 2.7-10.4 2.7-16V253.3c18.6-6.6 32-24.4 32-45.3v-32c0-26.5-21.5-48-48-48H256zm315.3 299.3c6.2-6.2 6.2-16.4 0-22.6l-64-64c-6.2-6.2-16.4-6.2-22.6 0l-64 64c-6.2 6.2-6.2 16.4 0 22.6s16.4 6.2 22.6 0l36.7-36.7V432c0 8.8 7.2 16 16 16s16-7.2 16-16V310.6l36.7 36.7c6.2 6.2 16.4 6.2 22.6 0M0 176c0-8.8 7.2-16 16-16h352c8.8 0 16 7.2 16 16v32c0 8.8-7.2 16-16 16H16c-8.8 0-16-7.2-16-16zm352 80v224c0 17.7-14.3 32-32 32H64c-17.7 0-32-14.3-32-32V256zm-208 64c-8.8 0-16 7.2-16 16s7.2 16 16 16h96c8.8 0 16-7.2 16-16s-7.2-16-16-16z"></path></symbol>
    <symbol viewBox="0 0 576 512" id="fa6-solid-cart-arrow-down"><path fill="currentColor" d="M24 0C10.7 0 0 10.7 0 24s10.7 24 24 24h45.5c3.8 0 7.1 2.7 7.9 6.5l51.6 271c6.5 34 36.2 58.5 70.7 58.5H488c13.3 0 24-10.7 24-24s-10.7-24-24-24H199.7c-11.5 0-21.4-8.2-23.6-19.5l-5.4-28.5h288.5c32.6 0 61.1-21.8 69.5-53.3l41-152.3C576.6 57 557.4 32 531.1 32H360v102.1l23-23c9.4-9.4 24.6-9.4 33.9 0s9.4 24.6 0 33.9l-64 64c-9.4 9.4-24.6 9.4-33.9 0l-64-64c-9.4-9.4-9.4-24.6 0-33.9s24.6-9.4 33.9 0l23 23V32H120.1C111 12.8 91.6 0 69.5 0zm152 512a48 48 0 1 0 0-96a48 48 0 1 0 0 96m336-48a48 48 0 1 0-96 0a48 48 0 1 0 96 0"></path></symbol>
    <symbol viewBox="0 0 448 512" id="fa6-solid-check-double"><path fill="currentColor" d="M342.6 86.6c12.5-12.5 12.5-32.8 0-45.3s-32.8-12.5-45.3 0L160 178.7l-57.4-57.4c-12.5-12.5-32.8-12.5-45.3 0s-12.5 32.8 0 45.3l80 80c12.5 12.5 32.8 12.5 45.3 0zm96 128c12.5-12.5 12.5-32.8 0-45.3s-32.8-12.5-45.3 0L160 402.7L54.6 297.4c-12.5-12.5-32.8-12.5-45.3 0s-12.5 32.8 0 45.3l128 128c12.5 12.5 32.8 12.5 45.3 0l256-256z"></path></symbol>
    <symbol viewBox="0 0 512 512" id="fa6-solid-sack-dollar"><path fill="currentColor" d="M320 96H192l-47.4-71.1c-7.1-10.7.5-24.9 13.3-24.9h196.2c12.8 0 20.4 14.2 13.3 24.9zm-128 32h128c3.8 2.5 8.1 5.3 13 8.4c56.7 36.3 179 114.5 179 279.6c0 53-43 96-96 96H96c-53 0-96-43-96-96c0-165.1 122.3-243.3 179-279.6c4.8-3.1 9.2-5.9 13-8.4m84 88c0-11-9-20-20-20s-20 9-20 20v14c-7.6 1.7-15.2 4.4-22.2 8.5c-13.9 8.3-25.9 22.8-25.8 43.9c.1 20.3 12 33.1 24.7 40.7c11 6.6 24.7 10.8 35.6 14l1.7.5c12.6 3.8 21.8 6.8 28 10.7c5.1 3.2 5.8 5.4 5.9 8.2c.1 5-1.8 8-5.9 10.5c-5 3.1-12.9 5-21.4 4.7c-11.1-.4-21.5-3.9-35.1-8.5c-2.3-.8-4.7-1.6-7.2-2.4c-10.5-3.5-21.8 2.2-25.3 12.6s2.2 21.8 12.6 25.3c1.9.6 4 1.3 6.1 2.1c8.3 2.9 17.9 6.2 28.2 8.4V424c0 11 9 20 20 20s20-9 20-20v-13.8c8-1.7 16-4.5 23.2-9c14.3-8.9 25.1-24.1 24.8-45c-.3-20.3-11.7-33.4-24.6-41.6c-11.5-7.2-25.9-11.6-37.1-15l-.7-.2c-12.8-3.9-21.9-6.7-28.3-10.5c-5.2-3.1-5.3-4.9-5.3-6.7c0-3.7 1.4-6.5 6.2-9.3c5.4-3.2 13.6-5.1 21.5-5c9.6.1 20.2 2.2 31.2 5.2c10.7 2.8 21.6-3.5 24.5-14.2s-3.5-21.6-14.2-24.5c-6.5-1.7-13.7-3.4-21.1-4.7z"></path></symbol>
    <symbol viewBox="0 0 24 24" id="hugeicons-coins-dollar"><g fill="none" stroke="currentColor" stroke-linecap="round" stroke-linejoin="round" stroke-width="1.5" color="currentColor"><path d="M14 18a8 8 0 1 0 0-16a8 8 0 0 0 0 16M3.157 11A7.111 7.111 0 0 0 13 20.843"></path><path d="M15.771 8.205c-.216-.912-1.316-1.735-2.637-1.12c-1.321.616-1.531 2.598.467 2.808c.903.095 1.492-.11 2.03.471c.54.581.64 2.198-.738 2.634s-2.742-.245-2.891-1.212m1.984-5.782v.87m0 6.258v.872"></path></g></symbol>
    <symbol viewBox="0 0 24 24" id="hugeicons-delivery-box-01"><path fill="none" stroke="currentColor" stroke-linecap="round" stroke-linejoin="round" stroke-width="1.5" d="M2 13.429V8h20v5.429c0 4.04 0 6.06-1.302 7.316C19.396 22 17.301 22 13.111 22H10.89c-4.19 0-6.285 0-7.587-1.255C2 19.489 2 17.469 2 13.429M2 8l.962-2.308c.745-1.79 1.118-2.684 1.874-3.188S6.56 2 8.5 2h7c1.939 0 2.908 0 3.664.504s1.129 1.399 1.874 3.188L22 8M12 8V2m-2 10h4" color="currentColor"></path></symbol>
    <symbol viewBox="0 0 24 24" id="hugeicons-shopping-basket-check-in-02"><g fill="none" stroke="currentColor" stroke-linecap="round" stroke-linejoin="round" stroke-width="1.5" color="currentColor"><path d="M13 22h-2.92c-2.333 0-3.5 0-4.312-.725c-.812-.724-1.017-1.949-1.427-4.397L3.178 9.936c-.19-1.13-.284-1.694.007-2.065c.292-.371.83-.371 1.906-.371h13.818c1.076 0 1.614 0 1.906.37c.29.372.196.936.007 2.066L20.56 11.5"></path><path d="M16 16.5c.491-.506 1.8-2.5 2.5-2.5m2.5 2.5c-.491-.506-1.8-2.5-2.5-2.5m0 0v8M7 7.5V7a5 5 0 0 1 10 0v.5m-12.5 10H13"></path></g></symbol>
    <symbol viewBox="0 0 24 24" id="hugeicons-shopping-basket-done-03"><path fill="none" stroke="currentColor" stroke-linecap="round" stroke-linejoin="round" stroke-width="1.5" d="M11.5 8h8.696c.625 0 .937 0 1.166.1c1.012.447.56 1.57.39 2.378a.48.48 0 0 1-.27.335c-.537.255-.844.678-1.015 1.187M7.5 8H3.804c-.625 0-.937 0-1.166.1c-1.012.447-.56 1.57-.39 2.378a.49.49 0 0 0 .27.335a1.93 1.93 0 0 1 1.09 1.4l.593 3.375c.26 1.485.35 3.606 1.65 4.652c.955.76 2.33.76 5.081.76h.568m2.5-2s1 0 2 2c0 0 3.177-5 6-6M6.5 11L10 3m5 0l2.5 5" color="currentColor"></path></symbol>

    </defs>
    </svg>
